<svg xmlns="http://www.w3.org/2000/svg" width="171" height="252" fill="none"><mask id="a" width="171" height="252" x="0" y="0" maskUnits="userSpaceOnUse" style="mask-type:alpha"><path fill="#D9D9D9" fill-opacity=".5" fill-rule="evenodd" d="M170.176 178.016c0-40.791-33.068-73.858-73.858-73.858h-2.612c-1.8 0-2.752-2.872-1.334-3.98 13.089-10.224 21.503-26.154 21.503-44.05C113.875 25.276 88.863.264 58.01.264h-2.032C25.125.263.113 25.275.113 56.128c0 30.854 25.012 55.866 55.865 55.866h2.032c.613 0 .842.886.304 1.18-22.921 12.537-38.466 36.874-38.466 64.842 0 40.791 33.067 73.858 73.858 73.858h2.611c40.791 0 73.859-33.067 73.859-73.858Z" clip-rule="evenodd"/></mask><g fill="#D9D9D9" fill-opacity=".5" mask="url(#a)"><path d="M194.122-128.073a.878.878 0 1 1 0-1.755.878.878 0 0 1 0 1.755Zm-47.112 0a.877.877 0 1 1 0-1.755.877.877 0 0 1 0 1.755Zm-47.111 0a.877.877 0 1 1 0-1.755.877.877 0 0 1 0 1.755Zm-47.112 0a.877.877 0 1 1 0-1.755.877.877 0 0 1 0 1.755Zm-47.112 0a.877.877 0 1 1 0-1.755.877.877 0 0 1 0 1.755Zm164.671 0a.877.877 0 1 1 0-1.754.877.877 0 0 1 0 1.754Zm-47.112 0a.877.877 0 1 1 0-1.755.877.877 0 0 1 0 1.755Zm-47.111 0a.877.877 0 1 1 0-1.755.877.877 0 0 1 0 1.755Zm-47.112 0a.877.877 0 1 1 0-1.755.877.877 0 0 1 0 1.755Zm-47.111 0a.877.877 0 1 1 0-1.755.877.877 0 0 1 0 1.755Zm212.222 23.765a.878.878 0 1 1 0-1.755.878.878 0 0 1 0 1.755Zm-47.112 0a.877.877 0 1 1 0-1.755.877.877 0 0 1 0 1.755Zm-47.111 0a.877.877 0 1 1 0-1.755.877.877 0 0 1 0 1.755Zm-47.112 0a.877.877 0 1 1 0-1.755.877.877 0 0 1 0 1.755Zm-47.112 0a.877.877 0 1 1 0-1.755.877.877 0 0 1 0 1.755Zm164.671 0a.877.877 0 1 1 0-1.754.877.877 0 0 1 0 1.754Zm-47.112 0a.877.877 0 1 1 0-1.755.877.877 0 0 1 0 1.755Zm-47.111 0a.877.877 0 1 1 0-1.755.877.877 0 0 1 0 1.755Zm-47.112 0a.877.877 0 1 1 0-1.755.877.877 0 0 1 0 1.755Zm-47.111 0a.877.877 0 1 1 0-1.755.877.877 0 0 1 0 1.755Zm212.222 23.765a.877.877 0 1 1-.001-1.755.877.877 0 0 1 .001 1.755Zm-47.112 0a.877.877 0 1 1 0-1.755.877.877 0 0 1 0 1.755Zm-47.111 0a.877.877 0 1 1 0-1.755.877.877 0 0 1 0 1.755Zm-47.112 0a.877.877 0 1 1 0-1.755.877.877 0 0 1 0 1.755Zm-47.112 0a.877.877 0 1 1 0-1.755.877.877 0 0 1 0 1.755Zm164.671 0a.877.877 0 1 1 0-1.753.877.877 0 0 1 0 1.753Zm-47.112 0a.877.877 0 1 1 0-1.755.877.877 0 0 1 0 1.755Zm-47.111 0a.877.877 0 1 1 0-1.755.877.877 0 0 1 0 1.755Zm-47.112 0a.877.877 0 1 1 0-1.755.877.877 0 0 1 0 1.755Zm-47.111 0a.877.877 0 1 1-.001-1.755.877.877 0 0 1 0 1.755Zm212.222 23.765a.877.877 0 1 1-.001-1.755.877.877 0 0 1 .001 1.755Zm-47.112 0a.877.877 0 1 1 0-1.755.877.877 0 0 1 0 1.755Zm-47.111 0a.877.877 0 1 1 0-1.754.877.877 0 0 1 0 1.754Zm-47.112 0a.877.877 0 1 1 0-1.754.877.877 0 0 1 0 1.754Zm-47.112 0a.877.877 0 1 1 0-1.755.877.877 0 0 1 0 1.755Zm164.671 0a.877.877 0 1 1 0-1.753.877.877 0 0 1 0 1.753Zm-47.112 0a.877.877 0 1 1 0-1.755.877.877 0 0 1 0 1.755Zm-47.111 0a.877.877 0 1 1 0-1.755.877.877 0 0 1 0 1.755Zm-47.112 0a.877.877 0 1 1 0-1.754.877.877 0 0 1 0 1.754Zm-47.111 0a.877.877 0 1 1-.001-1.755.877.877 0 0 1 0 1.755Zm212.222 23.765a.877.877 0 1 1-.001-1.755.877.877 0 0 1 .001 1.755Zm-47.112 0a.877.877 0 1 1 0-1.754.877.877 0 0 1 0 1.754Zm-47.111 0a.877.877 0 1 1 0-1.754.877.877 0 0 1 0 1.754Zm-47.112 0a.877.877 0 1 1 0-1.754.877.877 0 0 1 0 1.754Zm-47.112 0a.877.877 0 1 1 0-1.754.877.877 0 0 1 0 1.754Zm164.671 0a.877.877 0 1 1 0-1.753.877.877 0 0 1 0 1.753Zm-47.112 0a.877.877 0 1 1 0-1.754.877.877 0 0 1 0 1.754Zm-47.111 0a.877.877 0 1 1 0-1.755.877.877 0 0 1 0 1.755Zm-47.112 0a.877.877 0 1 1 0-1.754.877.877 0 0 1 0 1.754Zm-47.111 0a.877.877 0 1 1-.001-1.755.877.877 0 0 1 0 1.755ZM194.122-9.248a.877.877 0 1 1-.001-1.755.877.877 0 0 1 .001 1.755Zm-47.112 0a.877.877 0 1 1 0-1.754.877.877 0 0 1 0 1.754Zm-47.111 0a.877.877 0 1 1 0-1.754.877.877 0 0 1 0 1.754Zm-47.112 0a.877.877 0 1 1 0-1.754.877.877 0 0 1 0 1.754Zm-47.112 0a.877.877 0 1 1 0-1.754.877.877 0 0 1 0 1.754Zm164.671 0a.877.877 0 1 1 0-1.753.877.877 0 0 1 0 1.753Zm-47.112 0a.877.877 0 1 1 0-1.754.877.877 0 0 1 0 1.754Zm-47.111 0a.877.877 0 1 1 0-1.754.877.877 0 0 1 0 1.754Zm-47.112 0a.877.877 0 1 1 0-1.754.877.877 0 0 1 0 1.754Zm-47.111 0a.877.877 0 1 1-.001-1.754.877.877 0 0 1 0 1.754Zm212.222 23.765a.877.877 0 1 1-.001-1.755.877.877 0 0 1 .001 1.755Zm-47.112 0a.877.877 0 1 1 0-1.754.877.877 0 0 1 0 1.754Zm-47.111 0a.877.877 0 1 1 0-1.754.877.877 0 0 1 0 1.754Zm-47.112 0a.877.877 0 1 1 0-1.754.877.877 0 0 1 0 1.754Zm-47.112 0a.877.877 0 1 1 0-1.754.877.877 0 0 1 0 1.754Zm164.671 0a.877.877 0 1 1 0-1.753.877.877 0 0 1 0 1.753Zm-47.112 0a.877.877 0 1 1 0-1.754.877.877 0 0 1 0 1.754Zm-47.111 0a.877.877 0 1 1 0-1.754.877.877 0 0 1 0 1.754Zm-47.112 0a.877.877 0 1 1 0-1.754.877.877 0 0 1 0 1.754Zm-47.111 0a.877.877 0 1 1-.001-1.754.877.877 0 0 1 0 1.754Zm212.222 23.765a.877.877 0 1 1-.001-1.755.877.877 0 0 1 .001 1.755Zm-47.112 0a.877.877 0 1 1 0-1.754.877.877 0 0 1 0 1.754Zm-47.111 0a.877.877 0 1 1 0-1.754.877.877 0 0 1 0 1.754Zm-47.112 0a.877.877 0 1 1 0-1.754.877.877 0 0 1 0 1.754Zm-47.112 0a.877.877 0 1 1 0-1.754.877.877 0 0 1 0 1.754Zm164.671 0a.877.877 0 1 1 0-1.753.877.877 0 0 1 0 1.753Zm-47.112 0a.877.877 0 1 1 0-1.754.877.877 0 0 1 0 1.754Zm-47.111 0a.877.877 0 1 1 0-1.754.877.877 0 0 1 0 1.754Zm-47.112 0a.877.877 0 1 1 0-1.754.877.877 0 0 1 0 1.754Zm-47.111 0a.877.877 0 1 1-.001-1.754.877.877 0 0 1 0 1.754Zm212.222 23.765a.877.877 0 1 1-.001-1.754.877.877 0 0 1 .001 1.755Zm-47.112 0a.877.877 0 1 1 0-1.754.877.877 0 0 1 0 1.755Zm-47.111 0a.877.877 0 1 1 0-1.754.877.877 0 0 1 0 1.755Zm-47.112 0a.877.877 0 1 1 0-1.754.877.877 0 0 1 0 1.755Zm-47.112 0a.877.877 0 1 1 0-1.754.877.877 0 0 1 0 1.755Zm164.671 0a.877.877 0 1 1 0-1.753.877.877 0 0 1 0 1.754Zm-47.112 0a.877.877 0 1 1 0-1.754.877.877 0 0 1 0 1.755Zm-47.111 0a.877.877 0 1 1 0-1.754.877.877 0 0 1 0 1.755Zm-47.112 0a.877.877 0 1 1 0-1.754.877.877 0 0 1 0 1.755Zm-47.111 0a.877.877 0 1 1-.001-1.754.877.877 0 0 1 0 1.755Zm212.222 23.766a.877.877 0 1 1-.001-1.755.877.877 0 0 1 .001 1.755Zm-47.112 0a.877.877 0 1 1 0-1.755.877.877 0 0 1 0 1.755Zm-47.111 0a.877.877 0 1 1 0-1.755.877.877 0 0 1 0 1.755Zm-47.112 0a.877.877 0 1 1 0-1.755.877.877 0 0 1 0 1.755Zm-47.112 0a.877.877 0 1 1 0-1.755.877.877 0 0 1 0 1.755Zm164.671 0a.877.877 0 1 1 0-1.754.877.877 0 0 1 0 1.754Zm-47.112 0a.877.877 0 1 1 0-1.755.877.877 0 0 1 0 1.755Zm-47.111 0a.877.877 0 1 1 0-1.755.877.877 0 0 1 0 1.755Zm-47.112 0a.877.877 0 1 1 0-1.755.877.877 0 0 1 0 1.755Zm-47.111 0a.877.877 0 1 1-.001-1.755.877.877 0 0 1 0 1.755Zm212.222 23.765a.878.878 0 1 1 0-1.755.878.878 0 0 1 0 1.755Zm-47.112 0a.877.877 0 1 1 0-1.755.877.877 0 0 1 0 1.755Zm-47.111 0a.877.877 0 1 1 0-1.755.877.877 0 0 1 0 1.755Zm-47.112 0a.877.877 0 1 1 0-1.755.877.877 0 0 1 0 1.755Zm-47.112 0a.877.877 0 1 1 0-1.755.877.877 0 0 1 0 1.755Zm164.671 0a.877.877 0 1 1 0-1.754.877.877 0 0 1 0 1.754Zm-47.112 0a.877.877 0 1 1 0-1.755.877.877 0 0 1 0 1.755Zm-47.111 0a.877.877 0 1 1 0-1.755.877.877 0 0 1 0 1.755Zm-47.112 0a.877.877 0 1 1 0-1.755.877.877 0 0 1 0 1.755Zm-47.111 0a.877.877 0 1 1 0-1.755.877.877 0 0 1 0 1.755Zm212.222 23.765a.878.878 0 1 1 0-1.755.878.878 0 0 1 0 1.755Zm-47.112 0a.877.877 0 1 1 0-1.755.877.877 0 0 1 0 1.755Zm-47.111 0a.877.877 0 1 1 0-1.755.877.877 0 0 1 0 1.755Zm-47.112 0a.877.877 0 1 1 0-1.755.877.877 0 0 1 0 1.755Zm-47.112 0a.877.877 0 1 1 0-1.755.877.877 0 0 1 0 1.755Zm164.671 0a.877.877 0 1 1 0-1.754.877.877 0 0 1 0 1.754Zm-47.112 0a.877.877 0 1 1 0-1.755.877.877 0 0 1 0 1.755Zm-47.111 0a.877.877 0 1 1 0-1.755.877.877 0 0 1 0 1.755Zm-47.112 0a.877.877 0 1 1 0-1.755.877.877 0 0 1 0 1.755Zm-47.111 0a.877.877 0 1 1 0-1.755.877.877 0 0 1 0 1.755Zm212.222 23.765a.878.878 0 1 1 0-1.755.878.878 0 0 1 0 1.755Zm-47.112 0a.877.877 0 1 1 0-1.755.877.877 0 0 1 0 1.755Zm-47.111 0a.877.877 0 1 1 0-1.755.877.877 0 0 1 0 1.755Zm-47.112 0a.877.877 0 1 1 0-1.755.877.877 0 0 1 0 1.755Zm-47.112 0a.877.877 0 1 1 0-1.755.877.877 0 0 1 0 1.755Zm164.671 0a.877.877 0 1 1 0-1.754.877.877 0 0 1 0 1.754Zm-47.112 0a.877.877 0 1 1 0-1.755.877.877 0 0 1 0 1.755Zm-47.111 0a.877.877 0 1 1 0-1.755.877.877 0 0 1 0 1.755Zm-47.112 0a.877.877 0 1 1 0-1.755.877.877 0 0 1 0 1.755Zm-47.111 0a.877.877 0 1 1 0-1.755.877.877 0 0 1 0 1.755Zm212.222 23.765a.878.878 0 1 1 0-1.755.878.878 0 0 1 0 1.755Zm-47.112 0a.877.877 0 1 1 0-1.755.877.877 0 0 1 0 1.755Zm-47.111 0a.877.877 0 1 1 0-1.755.877.877 0 0 1 0 1.755Zm-47.112 0a.877.877 0 1 1 0-1.755.877.877 0 0 1 0 1.755Zm-47.112 0a.877.877 0 1 1 0-1.755.877.877 0 0 1 0 1.755Zm164.671 0a.877.877 0 1 1 0-1.754.877.877 0 0 1 0 1.754Zm-47.112 0a.877.877 0 1 1 0-1.755.877.877 0 0 1 0 1.755Zm-47.111 0a.877.877 0 1 1 0-1.755.877.877 0 0 1 0 1.755Zm-47.112 0a.877.877 0 1 1 0-1.755.877.877 0 0 1 0 1.755Zm-47.111 0a.877.877 0 1 1 0-1.755.877.877 0 0 1 0 1.755Zm212.222 23.765a.878.878 0 1 1 0-1.755.878.878 0 0 1 0 1.755Zm-47.112 0a.877.877 0 1 1 0-1.755.877.877 0 0 1 0 1.755Zm-47.111 0a.877.877 0 1 1 0-1.755.877.877 0 0 1 0 1.755Zm-47.112 0a.877.877 0 1 1 0-1.755.877.877 0 0 1 0 1.755Zm-47.112 0a.877.877 0 1 1 0-1.755.877.877 0 0 1 0 1.755Zm164.671 0a.877.877 0 1 1 0-1.754.877.877 0 0 1 0 1.754Zm-47.112 0a.877.877 0 1 1 0-1.755.877.877 0 0 1 0 1.755Zm-47.111 0a.877.877 0 1 1 0-1.755.877.877 0 0 1 0 1.755Zm-47.112 0a.877.877 0 1 1 0-1.755.877.877 0 0 1 0 1.755Zm-47.111 0a.877.877 0 1 1 0-1.755.877.877 0 0 1 0 1.755Zm212.222 23.765a.878.878 0 1 1 0-1.755.878.878 0 0 1 0 1.755Zm-47.112 0a.877.877 0 1 1 0-1.755.877.877 0 0 1 0 1.755Zm-47.111 0a.877.877 0 1 1 0-1.755.877.877 0 0 1 0 1.755Zm-47.112 0a.877.877 0 1 1 0-1.755.877.877 0 0 1 0 1.755Zm-47.112 0a.877.877 0 1 1 0-1.755.877.877 0 0 1 0 1.755Zm164.671 0a.877.877 0 1 1 0-1.754.877.877 0 0 1 0 1.754Zm-47.112 0a.877.877 0 1 1 0-1.755.877.877 0 0 1 0 1.755Zm-47.111 0a.877.877 0 1 1 0-1.755.877.877 0 0 1 0 1.755Zm-47.112 0a.877.877 0 1 1 0-1.755.877.877 0 0 1 0 1.755Zm-47.111 0a.877.877 0 1 1 0-1.755.877.877 0 0 1 0 1.755Zm212.222 23.765a.877.877 0 1 1-.002-1.754.877.877 0 0 1 .002 1.754Zm-47.112 0a.877.877 0 1 1 0-1.754.877.877 0 0 1 0 1.754Zm-47.111 0a.877.877 0 1 1-.002-1.754.877.877 0 0 1 .002 1.754Zm-47.112 0a.877.877 0 1 1-.001-1.754.877.877 0 0 1 .001 1.754Zm-47.112 0a.877.877 0 1 1 0-1.754.877.877 0 0 1 0 1.754Zm164.671 0a.876.876 0 1 1-.002-1.752.876.876 0 0 1 .002 1.752Zm-47.112 0a.877.877 0 1 1 0-1.754.877.877 0 0 1 0 1.754Zm-47.111 0a.877.877 0 1 1-.002-1.754.877.877 0 0 1 .002 1.754Zm-47.112 0a.877.877 0 1 1-.001-1.754.877.877 0 0 1 .001 1.754Zm-47.111 0a.877.877 0 1 1-.002-1.754.877.877 0 0 1 .001 1.754Zm212.222 23.765a.877.877 0 1 1-.002-1.754.877.877 0 0 1 .002 1.754Zm-47.112 0a.877.877 0 1 1 0-1.754.877.877 0 0 1 0 1.754Zm-47.111 0a.877.877 0 1 1-.002-1.754.877.877 0 0 1 .002 1.754Zm-47.112 0a.877.877 0 1 1-.001-1.754.877.877 0 0 1 .001 1.754Zm-47.112 0a.877.877 0 1 1 0-1.754.877.877 0 0 1 0 1.754Zm164.671 0a.876.876 0 1 1-.002-1.752.876.876 0 0 1 .002 1.752Zm-47.112 0a.877.877 0 1 1 0-1.754.877.877 0 0 1 0 1.754Zm-47.111 0a.877.877 0 1 1-.002-1.754.877.877 0 0 1 .002 1.754Zm-47.112 0a.877.877 0 1 1-.001-1.754.877.877 0 0 1 .001 1.754Zm-47.111 0a.877.877 0 1 1-.002-1.754.877.877 0 0 1 .001 1.754Zm212.222-392.117a.878.878 0 1 1 0-1.756.878.878 0 0 1 0 1.756Zm-47.112 0a.878.878 0 1 1 .001-1.755.878.878 0 0 1-.001 1.755Zm-47.111 0a.878.878 0 1 1 0-1.755.878.878 0 0 1 0 1.755Zm-47.112 0a.878.878 0 1 1 0-1.755.878.878 0 0 1 0 1.755Zm-47.112 0a.878.878 0 1 1 0-1.755.878.878 0 0 1 0 1.755Zm164.671 0a.877.877 0 1 1 0-1.754.877.877 0 0 1 0 1.754Zm-47.112 0a.878.878 0 1 1 .001-1.755.878.878 0 0 1-.001 1.755Zm-47.111 0a.878.878 0 1 1 0-1.755.878.878 0 0 1 0 1.755Zm-47.112 0a.878.878 0 1 1 0-1.755.878.878 0 0 1 0 1.755Zm-47.111 0a.878.878 0 1 1 0-1.755.878.878 0 0 1 0 1.755ZM194.122-92.42a.877.877 0 1 1-.001-1.754.877.877 0 0 1 .001 1.755Zm-47.112 0a.877.877 0 1 1 0-1.754.877.877 0 0 1 0 1.755Zm-47.111 0a.877.877 0 1 1 0-1.754.877.877 0 0 1 0 1.755Zm-47.112 0a.877.877 0 1 1 0-1.754.877.877 0 0 1 0 1.755Zm-47.112 0a.877.877 0 1 1 0-1.754.877.877 0 0 1 0 1.755Zm164.671 0a.877.877 0 1 1 0-1.753.877.877 0 0 1 0 1.754Zm-47.112 0a.877.877 0 1 1 0-1.754.877.877 0 0 1 0 1.755Zm-47.111 0a.877.877 0 1 1 0-1.754.877.877 0 0 1 0 1.755Zm-47.112 0a.877.877 0 1 1 0-1.754.877.877 0 0 1 0 1.755Zm-47.111 0a.877.877 0 1 1-.001-1.754.877.877 0 0 1 0 1.755Zm212.222 23.766a.877.877 0 1 1-.001-1.755.877.877 0 0 1 .001 1.755Zm-47.112 0a.877.877 0 1 1 0-1.755.877.877 0 0 1 0 1.755Zm-47.111 0a.877.877 0 1 1 0-1.755.877.877 0 0 1 0 1.755Zm-47.112 0a.877.877 0 1 1 0-1.755.877.877 0 0 1 0 1.755Zm-47.112 0a.877.877 0 1 1 0-1.755.877.877 0 0 1 0 1.755Zm164.671 0a.877.877 0 1 1 0-1.753.877.877 0 0 1 0 1.753Zm-47.112 0a.877.877 0 1 1 0-1.755.877.877 0 0 1 0 1.755Zm-47.111 0a.877.877 0 1 1 0-1.755.877.877 0 0 1 0 1.755Zm-47.112 0a.877.877 0 1 1 0-1.755.877.877 0 0 1 0 1.755Zm-47.111 0a.877.877 0 1 1-.001-1.755.877.877 0 0 1 0 1.755ZM194.122-44.89a.877.877 0 1 1-.001-1.754.877.877 0 0 1 .001 1.755Zm-47.112 0a.877.877 0 1 1 0-1.754.877.877 0 0 1 0 1.755Zm-47.111 0a.877.877 0 1 1 0-1.754.877.877 0 0 1 0 1.755Zm-47.112 0a.877.877 0 1 1 0-1.754.877.877 0 0 1 0 1.755Zm-47.112 0a.877.877 0 1 1 0-1.754.877.877 0 0 1 0 1.755Zm164.671 0a.877.877 0 1 1 0-1.752.877.877 0 0 1 0 1.753Zm-47.112 0a.877.877 0 1 1 0-1.754.877.877 0 0 1 0 1.755Zm-47.111 0a.877.877 0 1 1 0-1.754.877.877 0 0 1 0 1.755Zm-47.112 0a.877.877 0 1 1 0-1.754.877.877 0 0 1 0 1.755Zm-47.111 0a.877.877 0 1 1-.001-1.754.877.877 0 0 1 0 1.755Zm212.222 23.766a.877.877 0 1 1-.001-1.755.877.877 0 0 1 .001 1.755Zm-47.112 0a.877.877 0 1 1 0-1.754.877.877 0 0 1 0 1.754Zm-47.111 0a.877.877 0 1 1 0-1.754.877.877 0 0 1 0 1.754Zm-47.112 0a.877.877 0 1 1 0-1.754.877.877 0 0 1 0 1.754Zm-47.112 0a.877.877 0 1 1 0-1.754.877.877 0 0 1 0 1.754Zm164.671 0a.877.877 0 1 1 0-1.753.877.877 0 0 1 0 1.753Zm-47.112 0a.877.877 0 1 1 0-1.754.877.877 0 0 1 0 1.754Zm-47.111 0a.877.877 0 1 1 0-1.755.877.877 0 0 1 0 1.755Zm-47.112 0a.877.877 0 1 1 0-1.754.877.877 0 0 1 0 1.754Zm-47.111 0a.877.877 0 1 1-.001-1.755.877.877 0 0 1 0 1.755ZM194.122 2.641a.877.877 0 1 1-.001-1.755.877.877 0 0 1 .001 1.755Zm-47.112 0a.877.877 0 1 1 0-1.754.877.877 0 0 1 0 1.754Zm-47.111 0a.877.877 0 1 1 0-1.754.877.877 0 0 1 0 1.754Zm-47.112 0a.877.877 0 1 1 0-1.754.877.877 0 0 1 0 1.754Zm-47.112 0a.877.877 0 1 1 0-1.754.877.877 0 0 1 0 1.754Zm164.671 0a.877.877 0 1 1 0-1.753.877.877 0 0 1 0 1.753Zm-47.112 0a.877.877 0 1 1 0-1.754.877.877 0 0 1 0 1.754Zm-47.111 0a.877.877 0 1 1 0-1.755.877.877 0 0 1 0 1.755Zm-47.112 0a.877.877 0 1 1 0-1.754.877.877 0 0 1 0 1.754Zm-47.111 0a.877.877 0 1 1-.001-1.755.877.877 0 0 1 0 1.755Zm212.222 23.765a.877.877 0 1 1-.001-1.755.877.877 0 0 1 .001 1.755Zm-47.112 0a.877.877 0 1 1 0-1.754.877.877 0 0 1 0 1.754Zm-47.111 0a.877.877 0 1 1 0-1.754.877.877 0 0 1 0 1.754Zm-47.112 0a.877.877 0 1 1 0-1.754.877.877 0 0 1 0 1.754Zm-47.112 0a.877.877 0 1 1 0-1.754.877.877 0 0 1 0 1.754Zm164.671 0a.877.877 0 1 1 0-1.753.877.877 0 0 1 0 1.753Zm-47.112 0a.877.877 0 1 1 0-1.754.877.877 0 0 1 0 1.754Zm-47.111 0a.877.877 0 1 1 0-1.754.877.877 0 0 1 0 1.754Zm-47.112 0a.877.877 0 1 1 0-1.754.877.877 0 0 1 0 1.754Zm-47.111 0a.877.877 0 1 1-.001-1.755.877.877 0 0 1 0 1.755Zm212.222 23.765a.877.877 0 1 1-.001-1.755.877.877 0 0 1 .001 1.755Zm-47.112 0a.877.877 0 1 1 0-1.754.877.877 0 0 1 0 1.754Zm-47.111 0a.877.877 0 1 1 0-1.754.877.877 0 0 1 0 1.754Zm-47.112 0a.877.877 0 1 1 0-1.754.877.877 0 0 1 0 1.754Zm-47.112 0a.877.877 0 1 1 0-1.754.877.877 0 0 1 0 1.754Zm164.671 0a.877.877 0 1 1 0-1.753.877.877 0 0 1 0 1.753Zm-47.112 0a.877.877 0 1 1 0-1.754.877.877 0 0 1 0 1.754Zm-47.111 0a.877.877 0 1 1 0-1.754.877.877 0 0 1 0 1.754Zm-47.112 0a.877.877 0 1 1 0-1.754.877.877 0 0 1 0 1.754Zm-47.111 0a.877.877 0 1 1-.001-1.754.877.877 0 0 1 0 1.754Zm212.222 23.765a.877.877 0 1 1-.001-1.755.877.877 0 0 1 .001 1.755Zm-47.112 0a.877.877 0 1 1 0-1.754.877.877 0 0 1 0 1.754Zm-47.111 0a.877.877 0 1 1 0-1.754.877.877 0 0 1 0 1.754Zm-47.112 0a.877.877 0 1 1 0-1.754.877.877 0 0 1 0 1.754Zm-47.112 0a.877.877 0 1 1 0-1.754.877.877 0 0 1 0 1.754Zm164.671 0a.877.877 0 1 1 0-1.753.877.877 0 0 1 0 1.753Zm-47.112 0a.877.877 0 1 1 0-1.754.877.877 0 0 1 0 1.754Zm-47.111 0a.877.877 0 1 1 0-1.754.877.877 0 0 1 0 1.754Zm-47.112 0a.877.877 0 1 1 0-1.754.877.877 0 0 1 0 1.754Zm-47.111 0a.877.877 0 1 1-.001-1.754.877.877 0 0 1 0 1.754Zm212.222 23.765a.877.877 0 1 1-.001-1.755.877.877 0 0 1 .001 1.755Zm-47.112 0a.877.877 0 1 1 0-1.754.877.877 0 0 1 0 1.754Zm-47.111 0a.877.877 0 1 1 0-1.754.877.877 0 0 1 0 1.754Zm-47.112 0a.877.877 0 1 1 0-1.754.877.877 0 0 1 0 1.754Zm-47.112 0a.877.877 0 1 1 0-1.754.877.877 0 0 1 0 1.754Zm164.671 0a.877.877 0 1 1 0-1.753.877.877 0 0 1 0 1.753Zm-47.112 0a.877.877 0 1 1 0-1.754.877.877 0 0 1 0 1.754Zm-47.111 0a.877.877 0 1 1 0-1.754.877.877 0 0 1 0 1.754Zm-47.112 0a.877.877 0 1 1 0-1.754.877.877 0 0 1 0 1.754Zm-47.111 0a.877.877 0 1 1-.001-1.754.877.877 0 0 1 0 1.754Zm212.222 23.766a.878.878 0 1 1 0-1.756.878.878 0 0 1 0 1.756Zm-47.112 0a.878.878 0 1 1 .001-1.755.878.878 0 0 1-.001 1.755Zm-47.111 0a.878.878 0 1 1 0-1.755.878.878 0 0 1 0 1.755Zm-47.112 0a.878.878 0 1 1 0-1.755.878.878 0 0 1 0 1.755Zm-47.112 0a.878.878 0 1 1 0-1.755.878.878 0 0 1 0 1.755Zm164.671 0a.877.877 0 1 1 0-1.754.877.877 0 0 1 0 1.754Zm-47.112 0a.878.878 0 1 1 .001-1.755.878.878 0 0 1-.001 1.755Zm-47.111 0a.878.878 0 1 1 0-1.755.878.878 0 0 1 0 1.755Zm-47.112 0a.878.878 0 1 1 0-1.755.878.878 0 0 1 0 1.755Zm-47.111 0a.878.878 0 1 1 0-1.755.878.878 0 0 1 0 1.755Zm212.222 23.765a.878.878 0 1 1 0-1.755.878.878 0 0 1 0 1.755Zm-47.112 0a.877.877 0 1 1 0-1.755.877.877 0 0 1 0 1.755Zm-47.111 0a.877.877 0 1 1 0-1.755.877.877 0 0 1 0 1.755Zm-47.112 0a.877.877 0 1 1 0-1.755.877.877 0 0 1 0 1.755Zm-47.112 0a.877.877 0 1 1 0-1.755.877.877 0 0 1 0 1.755Zm164.671 0a.877.877 0 1 1 0-1.754.877.877 0 0 1 0 1.754Zm-47.112 0a.877.877 0 1 1 0-1.755.877.877 0 0 1 0 1.755Zm-47.111 0a.877.877 0 1 1 0-1.755.877.877 0 0 1 0 1.755Zm-47.112 0a.877.877 0 1 1 0-1.755.877.877 0 0 1 0 1.755Zm-47.111 0a.877.877 0 1 1 0-1.755.877.877 0 0 1 0 1.755Zm212.222 23.765a.878.878 0 1 1 0-1.755.878.878 0 0 1 0 1.755Zm-47.112 0a.877.877 0 1 1 0-1.755.877.877 0 0 1 0 1.755Zm-47.111 0a.877.877 0 1 1 0-1.755.877.877 0 0 1 0 1.755Zm-47.112 0a.877.877 0 1 1 0-1.755.877.877 0 0 1 0 1.755Zm-47.112 0a.877.877 0 1 1 0-1.755.877.877 0 0 1 0 1.755Zm164.671 0a.877.877 0 1 1 0-1.754.877.877 0 0 1 0 1.754Zm-47.112 0a.877.877 0 1 1 0-1.755.877.877 0 0 1 0 1.755Zm-47.111 0a.877.877 0 1 1 0-1.755.877.877 0 0 1 0 1.755Zm-47.112 0a.877.877 0 1 1 0-1.755.877.877 0 0 1 0 1.755Zm-47.111 0a.877.877 0 1 1 0-1.755.877.877 0 0 1 0 1.755Zm212.222 23.765a.878.878 0 1 1 0-1.755.878.878 0 0 1 0 1.755Zm-47.112 0a.877.877 0 1 1 0-1.755.877.877 0 0 1 0 1.755Zm-47.111 0a.877.877 0 1 1 0-1.755.877.877 0 0 1 0 1.755Zm-47.112 0a.877.877 0 1 1 0-1.755.877.877 0 0 1 0 1.755Zm-47.112 0a.877.877 0 1 1 0-1.755.877.877 0 0 1 0 1.755Zm164.671 0a.877.877 0 1 1 0-1.754.877.877 0 0 1 0 1.754Zm-47.112 0a.877.877 0 1 1 0-1.755.877.877 0 0 1 0 1.755Zm-47.111 0a.877.877 0 1 1 0-1.755.877.877 0 0 1 0 1.755Zm-47.112 0a.877.877 0 1 1 0-1.755.877.877 0 0 1 0 1.755Zm-47.111 0a.877.877 0 1 1 0-1.755.877.877 0 0 1 0 1.755Zm212.222 23.765a.878.878 0 1 1 0-1.755.878.878 0 0 1 0 1.755Zm-47.112 0a.877.877 0 1 1 0-1.755.877.877 0 0 1 0 1.755Zm-47.111 0a.877.877 0 1 1 0-1.755.877.877 0 0 1 0 1.755Zm-47.112 0a.877.877 0 1 1 0-1.755.877.877 0 0 1 0 1.755Zm-47.112 0a.877.877 0 1 1 0-1.755.877.877 0 0 1 0 1.755Zm164.671 0a.877.877 0 1 1 0-1.754.877.877 0 0 1 0 1.754Zm-47.112 0a.877.877 0 1 1 0-1.755.877.877 0 0 1 0 1.755Zm-47.111 0a.877.877 0 1 1 0-1.755.877.877 0 0 1 0 1.755Zm-47.112 0a.877.877 0 1 1 0-1.755.877.877 0 0 1 0 1.755Zm-47.111 0a.877.877 0 1 1 0-1.755.877.877 0 0 1 0 1.755Zm212.222 23.765a.878.878 0 1 1 0-1.755.878.878 0 0 1 0 1.755Zm-47.112 0a.877.877 0 1 1 0-1.755.877.877 0 0 1 0 1.755Zm-47.111 0a.877.877 0 1 1 0-1.755.877.877 0 0 1 0 1.755Zm-47.112 0a.877.877 0 1 1 0-1.755.877.877 0 0 1 0 1.755Zm-47.112 0a.877.877 0 1 1 0-1.755.877.877 0 0 1 0 1.755Zm164.671 0a.877.877 0 1 1 0-1.754.877.877 0 0 1 0 1.754Zm-47.112 0a.877.877 0 1 1 0-1.755.877.877 0 0 1 0 1.755Zm-47.111 0a.877.877 0 1 1 0-1.755.877.877 0 0 1 0 1.755Zm-47.112 0a.877.877 0 1 1 0-1.755.877.877 0 0 1 0 1.755Zm-47.111 0a.877.877 0 1 1 0-1.755.877.877 0 0 1 0 1.755Zm212.222 23.765a.878.878 0 1 1 0-1.755.878.878 0 0 1 0 1.755Zm-47.112 0a.877.877 0 1 1 0-1.755.877.877 0 0 1 0 1.755Zm-47.111 0a.877.877 0 1 1 0-1.755.877.877 0 0 1 0 1.755Zm-47.112 0a.877.877 0 1 1 0-1.755.877.877 0 0 1 0 1.755Zm-47.112 0a.877.877 0 1 1 0-1.755.877.877 0 0 1 0 1.755Zm164.671 0a.877.877 0 1 1 0-1.754.877.877 0 0 1 0 1.754Zm-47.112 0a.877.877 0 1 1 0-1.755.877.877 0 0 1 0 1.755Zm-47.111 0a.877.877 0 1 1 0-1.755.877.877 0 0 1 0 1.755Zm-47.112 0a.877.877 0 1 1 0-1.755.877.877 0 0 1 0 1.755Zm-47.111 0a.877.877 0 1 1 0-1.755.877.877 0 0 1 0 1.755Zm212.222 23.765a.877.877 0 1 1-.002-1.754.877.877 0 0 1 .002 1.754Zm-47.112 0a.877.877 0 1 1 0-1.754.877.877 0 0 1 0 1.754Zm-47.111 0a.877.877 0 1 1-.002-1.754.877.877 0 0 1 .002 1.754Zm-47.112 0a.877.877 0 1 1-.001-1.754.877.877 0 0 1 .001 1.754Zm-47.112 0a.877.877 0 1 1 0-1.754.877.877 0 0 1 0 1.754Zm164.671 0a.876.876 0 1 1-.002-1.752.876.876 0 0 1 .002 1.752Zm-47.112 0a.877.877 0 1 1 0-1.754.877.877 0 0 1 0 1.754Zm-47.111 0a.877.877 0 1 1-.002-1.754.877.877 0 0 1 .002 1.754Zm-47.112 0a.877.877 0 1 1-.001-1.754.877.877 0 0 1 .001 1.754Zm-47.111 0a.877.877 0 1 1-.002-1.754.877.877 0 0 1 .001 1.754Zm200.328-404.006a.878.878 0 1 1 0-1.756.878.878 0 0 1 0 1.756Zm-47.112 0a.877.877 0 1 1 0-1.754.877.877 0 0 1 0 1.754Zm-47.112 0a.878.878 0 1 1 0-1.755.878.878 0 0 1 0 1.755Zm-47.111 0a.878.878 0 1 1 0-1.755.878.878 0 0 1 0 1.755Zm-47.112 0a.878.878 0 1 1 0-1.755.878.878 0 0 1 0 1.755Zm164.671 0a.878.878 0 1 1 0-1.756.878.878 0 0 1 0 1.756Zm-47.112 0a.877.877 0 1 1 0-1.754.877.877 0 0 1 0 1.754Zm-47.112 0a.878.878 0 1 1 0-1.755.878.878 0 0 1 0 1.755Zm-47.111 0a.878.878 0 1 1 0-1.755.878.878 0 0 1 0 1.755Zm-47.112 0a.878.878 0 1 1 0-1.755.878.878 0 0 1 0 1.755ZM182.228-92.42a.877.877 0 1 1-.001-1.754.877.877 0 0 1 .001 1.755Zm-47.112 0a.877.877 0 1 1 0-1.753.877.877 0 0 1 0 1.754Zm-47.112 0a.877.877 0 1 1 0-1.754.877.877 0 0 1 0 1.755Zm-47.111 0a.877.877 0 1 1 0-1.754.877.877 0 0 1 0 1.755Zm-47.112 0a.877.877 0 1 1 0-1.754.877.877 0 0 1 0 1.755Zm164.671 0a.877.877 0 1 1-.001-1.754.877.877 0 0 1 .001 1.755Zm-47.112 0a.877.877 0 1 1 0-1.753.877.877 0 0 1 0 1.754Zm-47.112 0a.877.877 0 1 1 0-1.754.877.877 0 0 1 0 1.755Zm-47.111 0a.877.877 0 1 1 0-1.754.877.877 0 0 1 0 1.755Zm-47.112 0a.877.877 0 1 1 0-1.754.877.877 0 0 1 0 1.755Zm212.223 23.766a.877.877 0 1 1-.001-1.755.877.877 0 0 1 .001 1.755Zm-47.112 0a.877.877 0 1 1 0-1.753.877.877 0 0 1 0 1.753Zm-47.112 0a.877.877 0 1 1 0-1.755.877.877 0 0 1 0 1.755Zm-47.111 0a.877.877 0 1 1 0-1.755.877.877 0 0 1 0 1.755Zm-47.112 0a.877.877 0 1 1 0-1.755.877.877 0 0 1 0 1.755Zm164.671 0a.877.877 0 1 1-.001-1.755.877.877 0 0 1 .001 1.755Zm-47.112 0a.877.877 0 1 1 0-1.753.877.877 0 0 1 0 1.753Zm-47.112 0a.877.877 0 1 1 0-1.755.877.877 0 0 1 0 1.755Zm-47.111 0a.877.877 0 1 1 0-1.755.877.877 0 0 1 0 1.755Zm-47.112 0a.877.877 0 1 1 0-1.755.877.877 0 0 1 0 1.755ZM182.228-44.89a.877.877 0 1 1-.001-1.754.877.877 0 0 1 .001 1.755Zm-47.112 0a.877.877 0 1 1 0-1.752.877.877 0 0 1 0 1.753Zm-47.112 0a.877.877 0 1 1 0-1.754.877.877 0 0 1 0 1.755Zm-47.111 0a.877.877 0 1 1 0-1.754.877.877 0 0 1 0 1.755Zm-47.112 0a.877.877 0 1 1 0-1.754.877.877 0 0 1 0 1.755Zm164.671 0a.877.877 0 1 1-.001-1.754.877.877 0 0 1 .001 1.755Zm-47.112 0a.877.877 0 1 1 0-1.752.877.877 0 0 1 0 1.753Zm-47.112 0a.877.877 0 1 1 0-1.754.877.877 0 0 1 0 1.755Zm-47.111 0a.877.877 0 1 1 0-1.754.877.877 0 0 1 0 1.755Zm-47.112 0a.877.877 0 1 1 0-1.754.877.877 0 0 1 0 1.755Zm212.223 23.766a.877.877 0 1 1-.001-1.755.877.877 0 0 1 .001 1.755Zm-47.112 0a.877.877 0 1 1 0-1.753.877.877 0 0 1 0 1.753Zm-47.112 0a.877.877 0 1 1 0-1.755.877.877 0 0 1 0 1.755Zm-47.111 0a.877.877 0 1 1 0-1.754.877.877 0 0 1 0 1.754Zm-47.112 0a.877.877 0 1 1 0-1.754.877.877 0 0 1 0 1.754Zm164.671 0a.877.877 0 1 1-.001-1.755.877.877 0 0 1 .001 1.755Zm-47.112 0a.877.877 0 1 1 0-1.753.877.877 0 0 1 0 1.753Zm-47.112 0a.877.877 0 1 1 0-1.755.877.877 0 0 1 0 1.755Zm-47.111 0a.877.877 0 1 1 0-1.755.877.877 0 0 1 0 1.755Zm-47.112 0a.877.877 0 1 1 0-1.754.877.877 0 0 1 0 1.754ZM182.228 2.641a.877.877 0 1 1-.001-1.755.877.877 0 0 1 .001 1.755Zm-47.112 0a.877.877 0 1 1 0-1.753.877.877 0 0 1 0 1.753Zm-47.112 0a.877.877 0 1 1 0-1.755.877.877 0 0 1 0 1.755Zm-47.111 0a.877.877 0 1 1 0-1.754.877.877 0 0 1 0 1.754Zm-47.112 0a.877.877 0 1 1 0-1.754.877.877 0 0 1 0 1.754Zm164.671 0a.877.877 0 1 1-.001-1.755.877.877 0 0 1 .001 1.755Zm-47.112 0a.877.877 0 1 1 0-1.753.877.877 0 0 1 0 1.753Zm-47.112 0a.877.877 0 1 1 0-1.755.877.877 0 0 1 0 1.755Zm-47.111 0a.877.877 0 1 1 0-1.755.877.877 0 0 1 0 1.755Zm-47.112 0a.877.877 0 1 1 0-1.754.877.877 0 0 1 0 1.754Zm212.223 23.765a.877.877 0 1 1-.001-1.755.877.877 0 0 1 .001 1.755Zm-47.112 0a.877.877 0 1 1 0-1.753.877.877 0 0 1 0 1.753Zm-47.112 0a.877.877 0 1 1 0-1.754.877.877 0 0 1 0 1.754Zm-47.111 0a.877.877 0 1 1 0-1.754.877.877 0 0 1 0 1.754Zm-47.112 0a.877.877 0 1 1 0-1.754.877.877 0 0 1 0 1.754Zm164.671 0a.877.877 0 1 1-.001-1.755.877.877 0 0 1 .001 1.755Zm-47.112 0a.877.877 0 1 1 0-1.753.877.877 0 0 1 0 1.753Zm-47.112 0a.877.877 0 1 1 0-1.754.877.877 0 0 1 0 1.754Zm-47.111 0a.877.877 0 1 1 0-1.754.877.877 0 0 1 0 1.754Zm-47.112 0a.877.877 0 1 1 0-1.754.877.877 0 0 1 0 1.754Zm212.223 23.765a.877.877 0 1 1-.001-1.755.877.877 0 0 1 .001 1.755Zm-47.112 0a.877.877 0 1 1 0-1.753.877.877 0 0 1 0 1.753Zm-47.112 0a.877.877 0 1 1 0-1.754.877.877 0 0 1 0 1.754Zm-47.111 0a.877.877 0 1 1 0-1.754.877.877 0 0 1 0 1.754Zm-47.112 0a.877.877 0 1 1 0-1.754.877.877 0 0 1 0 1.754Zm164.671 0a.877.877 0 1 1-.001-1.755.877.877 0 0 1 .001 1.755Zm-47.112 0a.877.877 0 1 1 0-1.753.877.877 0 0 1 0 1.753Zm-47.112 0a.877.877 0 1 1 0-1.754.877.877 0 0 1 0 1.754Zm-47.111 0a.877.877 0 1 1 0-1.754.877.877 0 0 1 0 1.754Zm-47.112 0a.877.877 0 1 1 0-1.754.877.877 0 0 1 0 1.754Zm212.223 23.765a.877.877 0 1 1-.001-1.755.877.877 0 0 1 .001 1.755Zm-47.112 0a.877.877 0 1 1 0-1.753.877.877 0 0 1 0 1.753Zm-47.112 0a.877.877 0 1 1 0-1.754.877.877 0 0 1 0 1.754Zm-47.111 0a.877.877 0 1 1 0-1.754.877.877 0 0 1 0 1.754Zm-47.112 0a.877.877 0 1 1 0-1.754.877.877 0 0 1 0 1.754Zm164.671 0a.877.877 0 1 1-.001-1.755.877.877 0 0 1 .001 1.755Zm-47.112 0a.877.877 0 1 1 0-1.753.877.877 0 0 1 0 1.753Zm-47.112 0a.877.877 0 1 1 0-1.754.877.877 0 0 1 0 1.754Zm-47.111 0a.877.877 0 1 1 0-1.754.877.877 0 0 1 0 1.754Zm-47.112 0a.877.877 0 1 1 0-1.754.877.877 0 0 1 0 1.754Zm212.223 23.765a.877.877 0 1 1-.001-1.755.877.877 0 0 1 .001 1.755Zm-47.112 0a.877.877 0 1 1 0-1.753.877.877 0 0 1 0 1.753Zm-47.112 0a.877.877 0 1 1 0-1.754.877.877 0 0 1 0 1.754Zm-47.111 0a.877.877 0 1 1 0-1.754.877.877 0 0 1 0 1.754Zm-47.112 0a.877.877 0 1 1 0-1.754.877.877 0 0 1 0 1.754Zm164.671 0a.877.877 0 1 1-.001-1.755.877.877 0 0 1 .001 1.755Zm-47.112 0a.877.877 0 1 1 0-1.753.877.877 0 0 1 0 1.753Zm-47.112 0a.877.877 0 1 1 0-1.754.877.877 0 0 1 0 1.754Zm-47.111 0a.877.877 0 1 1 0-1.754.877.877 0 0 1 0 1.754Zm-47.112 0a.877.877 0 1 1 0-1.754.877.877 0 0 1 0 1.754Zm212.223 23.766a.878.878 0 1 1 0-1.756.878.878 0 0 1 0 1.756Zm-47.112 0a.877.877 0 1 1 0-1.754.877.877 0 0 1 0 1.754Zm-47.112 0a.878.878 0 1 1 0-1.755.878.878 0 0 1 0 1.755Zm-47.111 0a.878.878 0 1 1 0-1.755.878.878 0 0 1 0 1.755Zm-47.112 0a.878.878 0 1 1 0-1.755.878.878 0 0 1 0 1.755Zm164.671 0a.878.878 0 1 1 0-1.756.878.878 0 0 1 0 1.756Zm-47.112 0a.877.877 0 1 1 0-1.754.877.877 0 0 1 0 1.754Zm-47.112 0a.878.878 0 1 1 0-1.755.878.878 0 0 1 0 1.755Zm-47.111 0a.878.878 0 1 1 0-1.755.878.878 0 0 1 0 1.755Zm-47.112 0a.878.878 0 1 1 0-1.755.878.878 0 0 1 0 1.755Zm212.223 23.765a.878.878 0 1 1 0-1.755.878.878 0 0 1 0 1.755Zm-47.112 0a.877.877 0 1 1 0-1.754.877.877 0 0 1 0 1.754Zm-47.112 0a.877.877 0 1 1 0-1.755.877.877 0 0 1 0 1.755Zm-47.111 0a.877.877 0 1 1 0-1.755.877.877 0 0 1 0 1.755Zm-47.112 0a.877.877 0 1 1 0-1.755.877.877 0 0 1 0 1.755Zm164.671 0a.878.878 0 1 1 0-1.755.878.878 0 0 1 0 1.755Zm-47.112 0a.877.877 0 1 1 0-1.754.877.877 0 0 1 0 1.754Zm-47.112 0a.877.877 0 1 1 0-1.755.877.877 0 0 1 0 1.755Zm-47.111 0a.877.877 0 1 1 0-1.755.877.877 0 0 1 0 1.755Zm-47.112 0a.877.877 0 1 1 0-1.755.877.877 0 0 1 0 1.755Zm212.223 23.765a.878.878 0 1 1 0-1.755.878.878 0 0 1 0 1.755Zm-47.112 0a.877.877 0 1 1 0-1.754.877.877 0 0 1 0 1.754Zm-47.112 0a.877.877 0 1 1 0-1.755.877.877 0 0 1 0 1.755Zm-47.111 0a.877.877 0 1 1 0-1.755.877.877 0 0 1 0 1.755Zm-47.112 0a.877.877 0 1 1 0-1.755.877.877 0 0 1 0 1.755Zm164.671 0a.878.878 0 1 1 0-1.755.878.878 0 0 1 0 1.755Zm-47.112 0a.877.877 0 1 1 0-1.754.877.877 0 0 1 0 1.754Zm-47.112 0a.877.877 0 1 1 0-1.755.877.877 0 0 1 0 1.755Zm-47.111 0a.877.877 0 1 1 0-1.755.877.877 0 0 1 0 1.755Zm-47.112 0a.877.877 0 1 1 0-1.755.877.877 0 0 1 0 1.755Zm212.223 23.765a.878.878 0 1 1 0-1.755.878.878 0 0 1 0 1.755Zm-47.112 0a.877.877 0 1 1 0-1.754.877.877 0 0 1 0 1.754Zm-47.112 0a.877.877 0 1 1 0-1.755.877.877 0 0 1 0 1.755Zm-47.111 0a.877.877 0 1 1 0-1.755.877.877 0 0 1 0 1.755Zm-47.112 0a.877.877 0 1 1 0-1.755.877.877 0 0 1 0 1.755Zm164.671 0a.878.878 0 1 1 0-1.755.878.878 0 0 1 0 1.755Zm-47.112 0a.877.877 0 1 1 0-1.754.877.877 0 0 1 0 1.754Zm-47.112 0a.877.877 0 1 1 0-1.755.877.877 0 0 1 0 1.755Zm-47.111 0a.877.877 0 1 1 0-1.755.877.877 0 0 1 0 1.755Zm-47.112 0a.877.877 0 1 1 0-1.755.877.877 0 0 1 0 1.755Zm212.223 23.765a.878.878 0 1 1 0-1.755.878.878 0 0 1 0 1.755Zm-47.112 0a.877.877 0 1 1 0-1.754.877.877 0 0 1 0 1.754Zm-47.112 0a.877.877 0 1 1 0-1.755.877.877 0 0 1 0 1.755Zm-47.111 0a.877.877 0 1 1 0-1.755.877.877 0 0 1 0 1.755Zm-47.112 0a.877.877 0 1 1 0-1.755.877.877 0 0 1 0 1.755Zm164.671 0a.878.878 0 1 1 0-1.755.878.878 0 0 1 0 1.755Zm-47.112 0a.877.877 0 1 1 0-1.754.877.877 0 0 1 0 1.754Zm-47.112 0a.877.877 0 1 1 0-1.755.877.877 0 0 1 0 1.755Zm-47.111 0a.877.877 0 1 1 0-1.755.877.877 0 0 1 0 1.755Zm-47.112 0a.877.877 0 1 1 0-1.755.877.877 0 0 1 0 1.755Zm212.223 23.765a.878.878 0 1 1 0-1.755.878.878 0 0 1 0 1.755Zm-47.112 0a.877.877 0 1 1 0-1.754.877.877 0 0 1 0 1.754Zm-47.112 0a.877.877 0 1 1 0-1.755.877.877 0 0 1 0 1.755Zm-47.111 0a.877.877 0 1 1 0-1.755.877.877 0 0 1 0 1.755Zm-47.112 0a.877.877 0 1 1 0-1.755.877.877 0 0 1 0 1.755Zm164.671 0a.878.878 0 1 1 0-1.755.878.878 0 0 1 0 1.755Zm-47.112 0a.877.877 0 1 1 0-1.754.877.877 0 0 1 0 1.754Zm-47.112 0a.877.877 0 1 1 0-1.755.877.877 0 0 1 0 1.755Zm-47.111 0a.877.877 0 1 1 0-1.755.877.877 0 0 1 0 1.755Zm-47.112 0a.877.877 0 1 1 0-1.755.877.877 0 0 1 0 1.755Zm212.223 23.765a.878.878 0 1 1 0-1.755.878.878 0 0 1 0 1.755Zm-47.112 0a.877.877 0 1 1 0-1.754.877.877 0 0 1 0 1.754Zm-47.112 0a.877.877 0 1 1 0-1.755.877.877 0 0 1 0 1.755Zm-47.111 0a.877.877 0 1 1 0-1.755.877.877 0 0 1 0 1.755Zm-47.112 0a.877.877 0 1 1 0-1.755.877.877 0 0 1 0 1.755Zm164.671 0a.878.878 0 1 1 0-1.755.878.878 0 0 1 0 1.755Zm-47.112 0a.877.877 0 1 1 0-1.754.877.877 0 0 1 0 1.754Zm-47.112 0a.877.877 0 1 1 0-1.755.877.877 0 0 1 0 1.755Zm-47.111 0a.877.877 0 1 1 0-1.755.877.877 0 0 1 0 1.755Zm-47.112 0a.877.877 0 1 1 0-1.755.877.877 0 0 1 0 1.755Zm212.223 23.765a.877.877 0 1 1-.002-1.754.877.877 0 0 1 .002 1.754Zm-47.112 0a.876.876 0 1 1-.002-1.752.876.876 0 0 1 .002 1.752Zm-47.112 0a.877.877 0 1 1 0-1.754.877.877 0 0 1 0 1.754Zm-47.111 0a.877.877 0 1 1-.002-1.754.877.877 0 0 1 .002 1.754Zm-47.112 0a.877.877 0 1 1-.001-1.754.877.877 0 0 1 .001 1.754Zm164.671 0a.877.877 0 1 1-.002-1.754.877.877 0 0 1 .002 1.754Zm-47.112 0a.876.876 0 1 1-.002-1.752.876.876 0 0 1 .002 1.752Zm-47.112 0a.877.877 0 1 1 0-1.754.877.877 0 0 1 0 1.754Zm-47.111 0a.877.877 0 1 1-.002-1.754.877.877 0 0 1 .002 1.754Zm-47.112 0a.877.877 0 1 1-.001-1.754.877.877 0 0 1 .001 1.754Zm212.223-415.7a.878.878 0 1 1 0-1.755.878.878 0 0 1 0 1.755Zm-47.112 0a.877.877 0 1 1 0-1.754.877.877 0 0 1 0 1.754Zm-47.112 0a.877.877 0 1 1 0-1.755.877.877 0 0 1 0 1.755Zm-47.111 0a.877.877 0 1 1 0-1.755.877.877 0 0 1 0 1.755Zm-47.112 0a.877.877 0 1 1 0-1.755.877.877 0 0 1 0 1.755Zm164.671 0a.878.878 0 1 1 0-1.755.878.878 0 0 1 0 1.755Zm-47.112 0a.877.877 0 1 1 0-1.754.877.877 0 0 1 0 1.754Zm-47.112 0a.877.877 0 1 1 0-1.755.877.877 0 0 1 0 1.755Zm-47.111 0a.877.877 0 1 1 0-1.755.877.877 0 0 1 0 1.755Zm-47.112 0a.877.877 0 1 1 0-1.755.877.877 0 0 1 0 1.755Zm212.223 23.765a.878.878 0 1 1 0-1.755.878.878 0 0 1 0 1.755Zm-47.112 0a.877.877 0 1 1 0-1.754.877.877 0 0 1 0 1.754Zm-47.112 0a.877.877 0 1 1 0-1.755.877.877 0 0 1 0 1.755Zm-47.111 0a.877.877 0 1 1 0-1.755.877.877 0 0 1 0 1.755Zm-47.112 0a.877.877 0 1 1 0-1.755.877.877 0 0 1 0 1.755Zm164.671 0a.878.878 0 1 1 0-1.755.878.878 0 0 1 0 1.755Zm-47.112 0a.877.877 0 1 1 0-1.754.877.877 0 0 1 0 1.754Zm-47.112 0a.877.877 0 1 1 0-1.755.877.877 0 0 1 0 1.755Zm-47.111 0a.877.877 0 1 1 0-1.755.877.877 0 0 1 0 1.755Zm-47.112 0a.877.877 0 1 1 0-1.755.877.877 0 0 1 0 1.755Zm212.223 23.765a.877.877 0 1 1-.001-1.755.877.877 0 0 1 .001 1.755Zm-47.112 0a.877.877 0 1 1 0-1.753.877.877 0 0 1 0 1.753Zm-47.112 0a.877.877 0 1 1 0-1.755.877.877 0 0 1 0 1.755Zm-47.111 0a.877.877 0 1 1 0-1.755.877.877 0 0 1 0 1.755Zm-47.112 0a.877.877 0 1 1 0-1.755.877.877 0 0 1 0 1.755Zm164.671 0a.877.877 0 1 1-.001-1.755.877.877 0 0 1 .001 1.755Zm-47.112 0a.877.877 0 1 1 0-1.753.877.877 0 0 1 0 1.753Zm-47.112 0a.877.877 0 1 1 0-1.755.877.877 0 0 1 0 1.755Zm-47.111 0a.877.877 0 1 1 0-1.755.877.877 0 0 1 0 1.755Zm-47.112 0a.877.877 0 1 1 0-1.755.877.877 0 0 1 0 1.755Zm212.223 23.765a.877.877 0 1 1-.001-1.755.877.877 0 0 1 .001 1.755Zm-47.112 0a.877.877 0 1 1 0-1.753.877.877 0 0 1 0 1.753Zm-47.112 0a.877.877 0 1 1 0-1.755.877.877 0 0 1 0 1.755Zm-47.111 0a.877.877 0 1 1 0-1.755.877.877 0 0 1 0 1.755Zm-47.112 0a.877.877 0 1 1 0-1.755.877.877 0 0 1 0 1.755Zm164.671 0a.877.877 0 1 1-.001-1.755.877.877 0 0 1 .001 1.755Zm-47.112 0a.877.877 0 1 1 0-1.753.877.877 0 0 1 0 1.753Zm-47.112 0a.877.877 0 1 1 0-1.755.877.877 0 0 1 0 1.755Zm-47.111 0a.877.877 0 1 1 0-1.755.877.877 0 0 1 0 1.755Zm-47.112 0a.877.877 0 1 1 0-1.755.877.877 0 0 1 0 1.755Zm212.223 23.765a.877.877 0 1 1-.001-1.755.877.877 0 0 1 .001 1.755Zm-47.112 0a.877.877 0 1 1 0-1.753.877.877 0 0 1 0 1.753Zm-47.112 0a.877.877 0 1 1 0-1.755.877.877 0 0 1 0 1.755Zm-47.111 0a.877.877 0 1 1 0-1.754.877.877 0 0 1 0 1.754Zm-47.112 0a.877.877 0 1 1 0-1.755.877.877 0 0 1 0 1.755Zm164.671 0a.877.877 0 1 1-.001-1.755.877.877 0 0 1 .001 1.755Zm-47.112 0a.877.877 0 1 1 0-1.753.877.877 0 0 1 0 1.753Zm-47.112 0a.877.877 0 1 1 0-1.755.877.877 0 0 1 0 1.755Zm-47.111 0a.877.877 0 1 1 0-1.755.877.877 0 0 1 0 1.755Zm-47.112 0a.877.877 0 1 1 0-1.754.877.877 0 0 1 0 1.754ZM182.228-9.053a.877.877 0 1 1-.001-1.755.877.877 0 0 1 .001 1.755Zm-47.112 0a.877.877 0 1 1 0-1.753.877.877 0 0 1 0 1.753Zm-47.112 0a.877.877 0 1 1 0-1.754.877.877 0 0 1 0 1.754Zm-47.111 0a.877.877 0 1 1 0-1.754.877.877 0 0 1 0 1.754Zm-47.112 0a.877.877 0 1 1 0-1.754.877.877 0 0 1 0 1.754Zm164.671 0a.877.877 0 1 1-.001-1.755.877.877 0 0 1 .001 1.755Zm-47.112 0a.877.877 0 1 1 0-1.753.877.877 0 0 1 0 1.753Zm-47.112 0a.877.877 0 1 1 0-1.754.877.877 0 0 1 0 1.754Zm-47.111 0a.877.877 0 1 1 0-1.754.877.877 0 0 1 0 1.754Zm-47.112 0a.877.877 0 1 1 0-1.754.877.877 0 0 1 0 1.754Zm212.223 23.765a.877.877 0 1 1-.001-1.755.877.877 0 0 1 .001 1.755Zm-47.112 0a.877.877 0 1 1 0-1.753.877.877 0 0 1 0 1.753Zm-47.112 0a.877.877 0 1 1 0-1.754.877.877 0 0 1 0 1.754Zm-47.111 0a.877.877 0 1 1 0-1.754.877.877 0 0 1 0 1.754Zm-47.112 0a.877.877 0 1 1 0-1.754.877.877 0 0 1 0 1.754Zm164.671 0a.877.877 0 1 1-.001-1.755.877.877 0 0 1 .001 1.755Zm-47.112 0a.877.877 0 1 1 0-1.753.877.877 0 0 1 0 1.753Zm-47.112 0a.877.877 0 1 1 0-1.754.877.877 0 0 1 0 1.754Zm-47.111 0a.877.877 0 1 1 0-1.754.877.877 0 0 1 0 1.754Zm-47.112 0a.877.877 0 1 1 0-1.754.877.877 0 0 1 0 1.754Zm212.223 23.765a.877.877 0 1 1-.001-1.755.877.877 0 0 1 .001 1.755Zm-47.112 0a.877.877 0 1 1 0-1.753.877.877 0 0 1 0 1.753Zm-47.112 0a.877.877 0 1 1 0-1.754.877.877 0 0 1 0 1.754Zm-47.111 0a.877.877 0 1 1 0-1.754.877.877 0 0 1 0 1.754Zm-47.112 0a.877.877 0 1 1 0-1.754.877.877 0 0 1 0 1.754Zm164.671 0a.877.877 0 1 1-.001-1.755.877.877 0 0 1 .001 1.755Zm-47.112 0a.877.877 0 1 1 0-1.753.877.877 0 0 1 0 1.753Zm-47.112 0a.877.877 0 1 1 0-1.754.877.877 0 0 1 0 1.754Zm-47.111 0a.877.877 0 1 1 0-1.754.877.877 0 0 1 0 1.754Zm-47.112 0a.877.877 0 1 1 0-1.754.877.877 0 0 1 0 1.754Zm212.223 23.765a.877.877 0 1 1-.001-1.755.877.877 0 0 1 .001 1.755Zm-47.112 0a.877.877 0 1 1 0-1.753.877.877 0 0 1 0 1.753Zm-47.112 0a.877.877 0 1 1 0-1.754.877.877 0 0 1 0 1.754Zm-47.111 0a.877.877 0 1 1 0-1.754.877.877 0 0 1 0 1.754Zm-47.112 0a.877.877 0 1 1 0-1.754.877.877 0 0 1 0 1.754Zm164.671 0a.877.877 0 1 1-.001-1.755.877.877 0 0 1 .001 1.755Zm-47.112 0a.877.877 0 1 1 0-1.753.877.877 0 0 1 0 1.753Zm-47.112 0a.877.877 0 1 1 0-1.754.877.877 0 0 1 0 1.754Zm-47.111 0a.877.877 0 1 1 0-1.754.877.877 0 0 1 0 1.754Zm-47.112 0a.877.877 0 1 1 0-1.754.877.877 0 0 1 0 1.754Zm212.223 23.765a.877.877 0 1 1-.001-1.754.877.877 0 0 1 .001 1.754Zm-47.112 0a.877.877 0 1 1 0-1.753.877.877 0 0 1 0 1.753Zm-47.112 0a.877.877 0 1 1 0-1.754.877.877 0 0 1 0 1.754Zm-47.111 0a.877.877 0 1 1 0-1.754.877.877 0 0 1 0 1.754Zm-47.112 0a.877.877 0 1 1 0-1.754.877.877 0 0 1 0 1.754Zm164.671 0a.877.877 0 1 1-.001-1.754.877.877 0 0 1 .001 1.754Zm-47.112 0a.877.877 0 1 1 0-1.753.877.877 0 0 1 0 1.753Zm-47.112 0a.877.877 0 1 1 0-1.754.877.877 0 0 1 0 1.754Zm-47.111 0a.877.877 0 1 1 0-1.754.877.877 0 0 1 0 1.754Zm-47.112 0a.877.877 0 1 1 0-1.754.877.877 0 0 1 0 1.754Zm212.223 23.766a.878.878 0 1 1 0-1.755.878.878 0 0 1 0 1.755Zm-47.112 0a.877.877 0 1 1 0-1.754.877.877 0 0 1 0 1.754Zm-47.112 0a.877.877 0 1 1 0-1.755.877.877 0 0 1 0 1.755Zm-47.111 0a.877.877 0 1 1 0-1.755.877.877 0 0 1 0 1.755Zm-47.112 0a.877.877 0 1 1 0-1.755.877.877 0 0 1 0 1.755Zm164.671 0a.878.878 0 1 1 0-1.755.878.878 0 0 1 0 1.755Zm-47.112 0a.877.877 0 1 1 0-1.754.877.877 0 0 1 0 1.754Zm-47.112 0a.877.877 0 1 1 0-1.755.877.877 0 0 1 0 1.755Zm-47.111 0a.877.877 0 1 1 0-1.755.877.877 0 0 1 0 1.755Zm-47.112 0a.877.877 0 1 1 0-1.755.877.877 0 0 1 0 1.755Zm212.223 23.765a.878.878 0 1 1 0-1.755.878.878 0 0 1 0 1.755Zm-47.112 0a.877.877 0 1 1 0-1.754.877.877 0 0 1 0 1.754Zm-47.112 0a.877.877 0 1 1 0-1.755.877.877 0 0 1 0 1.755Zm-47.111 0a.877.877 0 1 1 0-1.755.877.877 0 0 1 0 1.755Zm-47.112 0a.877.877 0 1 1 0-1.755.877.877 0 0 1 0 1.755Zm164.671 0a.878.878 0 1 1 0-1.755.878.878 0 0 1 0 1.755Zm-47.112 0a.877.877 0 1 1 0-1.754.877.877 0 0 1 0 1.754Zm-47.112 0a.877.877 0 1 1 0-1.755.877.877 0 0 1 0 1.755Zm-47.111 0a.877.877 0 1 1 0-1.755.877.877 0 0 1 0 1.755Zm-47.112 0a.877.877 0 1 1 0-1.755.877.877 0 0 1 0 1.755Zm212.223 23.765a.878.878 0 1 1 0-1.755.878.878 0 0 1 0 1.755Zm-47.112 0a.877.877 0 1 1 0-1.754.877.877 0 0 1 0 1.754Zm-47.112 0a.877.877 0 1 1 0-1.755.877.877 0 0 1 0 1.755Zm-47.111 0a.877.877 0 1 1 0-1.755.877.877 0 0 1 0 1.755Zm-47.112 0a.877.877 0 1 1 0-1.755.877.877 0 0 1 0 1.755Zm164.671 0a.878.878 0 1 1 0-1.755.878.878 0 0 1 0 1.755Zm-47.112 0a.877.877 0 1 1 0-1.754.877.877 0 0 1 0 1.754Zm-47.112 0a.877.877 0 1 1 0-1.755.877.877 0 0 1 0 1.755Zm-47.111 0a.877.877 0 1 1 0-1.755.877.877 0 0 1 0 1.755Zm-47.112 0a.877.877 0 1 1 0-1.755.877.877 0 0 1 0 1.755Zm212.223 23.765a.878.878 0 1 1 0-1.755.878.878 0 0 1 0 1.755Zm-47.112 0a.877.877 0 1 1 0-1.754.877.877 0 0 1 0 1.754Zm-47.112 0a.877.877 0 1 1 0-1.755.877.877 0 0 1 0 1.755Zm-47.111 0a.877.877 0 1 1 0-1.755.877.877 0 0 1 0 1.755Zm-47.112 0a.877.877 0 1 1 0-1.755.877.877 0 0 1 0 1.755Zm164.671 0a.878.878 0 1 1 0-1.755.878.878 0 0 1 0 1.755Zm-47.112 0a.877.877 0 1 1 0-1.754.877.877 0 0 1 0 1.754Zm-47.112 0a.877.877 0 1 1 0-1.755.877.877 0 0 1 0 1.755Zm-47.111 0a.877.877 0 1 1 0-1.755.877.877 0 0 1 0 1.755Zm-47.112 0a.877.877 0 1 1 0-1.755.877.877 0 0 1 0 1.755Zm212.223 23.765a.878.878 0 1 1 0-1.755.878.878 0 0 1 0 1.755Zm-47.112 0a.877.877 0 1 1 0-1.754.877.877 0 0 1 0 1.754Zm-47.112 0a.877.877 0 1 1 0-1.755.877.877 0 0 1 0 1.755Zm-47.111 0a.877.877 0 1 1 0-1.755.877.877 0 0 1 0 1.755Zm-47.112 0a.877.877 0 1 1 0-1.755.877.877 0 0 1 0 1.755Zm164.671 0a.878.878 0 1 1 0-1.755.878.878 0 0 1 0 1.755Zm-47.112 0a.877.877 0 1 1 0-1.754.877.877 0 0 1 0 1.754Zm-47.112 0a.877.877 0 1 1 0-1.755.877.877 0 0 1 0 1.755Zm-47.111 0a.877.877 0 1 1 0-1.755.877.877 0 0 1 0 1.755Zm-47.112 0a.877.877 0 1 1 0-1.755.877.877 0 0 1 0 1.755Zm212.223 23.765a.878.878 0 1 1 0-1.755.878.878 0 0 1 0 1.755Zm-47.112 0a.877.877 0 1 1 0-1.754.877.877 0 0 1 0 1.754Zm-47.112 0a.877.877 0 1 1 0-1.755.877.877 0 0 1 0 1.755Zm-47.111 0a.877.877 0 1 1 0-1.755.877.877 0 0 1 0 1.755Zm-47.112 0a.877.877 0 1 1 0-1.755.877.877 0 0 1 0 1.755Zm164.671 0a.878.878 0 1 1 0-1.755.878.878 0 0 1 0 1.755Zm-47.112 0a.877.877 0 1 1 0-1.754.877.877 0 0 1 0 1.754Zm-47.112 0a.877.877 0 1 1 0-1.755.877.877 0 0 1 0 1.755Zm-47.111 0a.877.877 0 1 1 0-1.755.877.877 0 0 1 0 1.755Zm-47.112 0a.877.877 0 1 1 0-1.755.877.877 0 0 1 0 1.755Zm212.223 23.765a.877.877 0 1 1-.002-1.754.877.877 0 0 1 .002 1.754Zm-47.112 0a.876.876 0 1 1-.002-1.752.876.876 0 0 1 .002 1.752Zm-47.112 0a.877.877 0 1 1 0-1.754.877.877 0 0 1 0 1.754Zm-47.111 0a.877.877 0 1 1-.002-1.754.877.877 0 0 1 .002 1.754Zm-47.112 0a.877.877 0 1 1-.001-1.754.877.877 0 0 1 .001 1.754Zm164.671 0a.877.877 0 1 1-.002-1.754.877.877 0 0 1 .002 1.754Zm-47.112 0a.876.876 0 1 1-.002-1.752.876.876 0 0 1 .002 1.752Zm-47.112 0a.877.877 0 1 1 0-1.754.877.877 0 0 1 0 1.754Zm-47.111 0a.877.877 0 1 1-.002-1.754.877.877 0 0 1 .002 1.754Zm-47.112 0a.877.877 0 1 1-.001-1.754.877.877 0 0 1 .001 1.754Zm212.223 23.765a.877.877 0 1 1-.002-1.754.877.877 0 0 1 .002 1.754Zm-47.112 0a.876.876 0 1 1-.002-1.752.876.876 0 0 1 .002 1.752Zm-47.112 0a.877.877 0 1 1 0-1.754.877.877 0 0 1 0 1.754Zm-47.111 0a.877.877 0 1 1-.002-1.754.877.877 0 0 1 .002 1.754Zm-47.112 0a.877.877 0 1 1-.001-1.754.877.877 0 0 1 .001 1.754Zm164.671 0a.877.877 0 1 1-.002-1.754.877.877 0 0 1 .002 1.754Zm-47.112 0a.876.876 0 1 1-.002-1.752.876.876 0 0 1 .002 1.752Zm-47.112 0a.877.877 0 1 1 0-1.754.877.877 0 0 1 0 1.754Zm-47.111 0a.877.877 0 1 1-.002-1.754.877.877 0 0 1 .002 1.754Zm-47.112 0a.877.877 0 1 1-.001-1.754.877.877 0 0 1 .001 1.754Z"/></g></svg>